<svg width="1178.000000" height="64.000000" viewBox="0 0 1178 64" fill="none" xmlns="http://www.w3.org/2000/svg" xmlns:xlink="http://www.w3.org/1999/xlink">
	<desc>
			Created with Pixso.
	</desc>
	<defs>
		<filter id="filter_5_231_dd" x="0.000000" y="0.000000" width="1178.000000" height="64.000000" filterUnits="userSpaceOnUse" color-interpolation-filters="sRGB">
			<feFlood flood-opacity="0" result="BackgroundImageFix"/>
			<feColorMatrix in="SourceAlpha" type="matrix" values="0 0 0 0 0 0 0 0 0 0 0 0 0 0 0 0 0 0 127 0" result="hardAlpha"/>
			<feOffset dx="0" dy="4"/>
			<feGaussianBlur stdDeviation="1.33333"/>
			<feComposite in2="hardAlpha" operator="out" k2="-1" k3="1"/>
			<feColorMatrix type="matrix" values="0 0 0 0 0 0 0 0 0 0 0 0 0 0 0 0 0 0 0.25 0"/>
			<feBlend mode="normal" in2="BackgroundImageFix" result="effect_dropShadow_1"/>
			<feBlend mode="normal" in="SourceGraphic" in2="effect_dropShadow_1" result="shape"/>
		</filter>
	</defs>
	<g filter="url(#filter_5_231_dd)">
		<rect id="Rectangle 4" x="4.000000" rx="28.000000" width="160.000000" height="56.000000" fill="#894189" fill-opacity="1.000000"/>
		<path id="Rectangle 5" d="M32 0L49.262 0C54.9006 0 58.7698 5.67703 56.708 10.9252L40.9937 50.9252C39.791 53.9867 36.8369 56 33.5476 56L32 56C16.5361 56 4 43.464 4 28C4 12.536 16.5361 0 32 0Z" fill="#FFFFFF" fill-opacity="0.070000" fill-rule="nonzero"/>
		<path id="Life" d="M40.618 35L49.4071 35L49.4071 33.1104L42.8153 33.1104L42.8153 20.4541L40.618 20.4541L40.618 35ZM51.7326 35L53.8566 35L53.8566 24.0918L51.7326 24.0918L51.7326 35ZM52.8068 22.4072C53.5392 22.4072 54.1496 21.8408 54.1496 21.1426C54.1496 20.4492 53.5392 19.873 52.8068 19.873C52.0695 19.873 51.464 20.4492 51.464 21.1426C51.464 21.8408 52.0695 22.4072 52.8068 22.4072ZM61.9066 24.0918L59.5531 24.0918L59.5531 23.1104C59.5531 22.1436 59.9535 21.6211 60.9886 21.6211C61.4281 21.6211 61.7406 21.7188 61.9408 21.7822L62.4388 20.0635C62.141 19.9512 61.5209 19.7705 60.6615 19.7705C58.9379 19.7705 57.4242 20.7812 57.4242 22.8271L57.4242 24.0918L55.7396 24.0918L55.7396 25.7959L57.4242 25.7959L57.4242 35L59.5531 35L59.5531 25.7959L61.9066 25.7959L61.9066 24.0918ZM68.3595 35.2197C70.7423 35.2197 72.422 34.0479 72.9054 32.2705L70.8985 31.9092C70.5128 32.9395 69.5899 33.4668 68.3839 33.4668C66.5626 33.4668 65.3419 32.2852 65.2833 30.1855L73.0421 30.1855L73.0421 29.4336C73.0421 25.4883 70.6837 23.9502 68.213 23.9502C65.171 23.9502 63.169 26.2646 63.169 29.6143C63.169 33.0029 65.1417 35.2197 68.3595 35.2197ZM65.2931 28.5938C65.3761 27.0459 66.4991 25.7031 68.2276 25.7031C69.8731 25.7031 70.9522 26.9238 70.962 28.5938L65.2931 28.5938Z" fill="#FFFFFF" fill-opacity="1.000000" fill-rule="evenodd"/>
		<path id="Vector" d="M92.5859 37.8951L92.5776 37.8916L92.552 37.8776C92.4019 37.795 92.2529 37.7102 92.1052 37.6233C90.3293 36.568 88.6697 35.3283 87.1538 33.9249C84.4692 31.4201 81.625 27.7031 81.625 23.1251C81.625 19.7091 84.4998 17.0001 87.9692 17.0001C88.9338 16.9954 89.887 17.2082 90.7581 17.6226C91.6289 18.0371 92.3953 18.6426 93 19.3941C93.6047 18.6425 94.3713 18.0369 95.2424 17.6224C96.1138 17.2079 97.0671 16.9952 98.0317 17.0001C101.5 17.0001 104.375 19.7091 104.375 23.1251C104.375 27.7043 101.531 31.4213 98.8462 33.9237C97.3303 35.3272 95.6707 36.5669 93.8948 37.6221C93.7471 37.7094 93.5981 37.7946 93.448 37.8776L93.4224 37.8916L93.4141 37.8962L93.4106 37.8974C93.2842 37.9644 93.1431 37.9995 93 37.9995C92.8569 37.9995 92.7158 37.9644 92.5894 37.8974L92.5859 37.8951Z" fill="#FFFFFF" fill-opacity="1.000000" fill-rule="nonzero"/>
		<path id="offline_bolt" d="M102.893 35.9668L106.083 29.7335L103.883 29.7335L103.883 25.7001L100.583 31.9334L102.893 31.9334L102.893 35.9668ZM103.333 38.1668C102.319 38.1668 101.365 37.9743 100.473 37.5893C99.5811 37.2043 98.8049 36.6818 98.145 36.0218C97.4851 35.3618 96.9624 34.5857 96.5774 33.6935C96.1924 32.8012 96 31.8479 96 30.8335C96 29.819 96.1924 28.8657 96.5774 27.9734C96.9624 27.0812 97.4851 26.3051 98.145 25.6451C98.8049 24.9851 99.5811 24.4626 100.473 24.0776C101.365 23.6926 102.319 23.5001 103.333 23.5001C104.348 23.5001 105.301 23.6926 106.193 24.0776C107.085 24.4626 107.862 24.9851 108.522 25.6451C109.182 26.3051 109.704 27.0812 110.089 27.9734C110.474 28.8657 110.667 29.819 110.667 30.8335C110.667 31.8479 110.474 32.8012 110.089 33.6935C109.704 34.5857 109.182 35.3618 108.522 36.0218C107.862 36.6818 107.085 37.2043 106.193 37.5893C105.301 37.9743 104.348 38.1668 103.333 38.1668Z" fill="#894189" fill-opacity="1.000000" fill-rule="nonzero"/>
		<path id="offline_bolt" d="M103.267 35.5001L106.167 29.8334L104.167 29.8334L104.167 26.1667L101.167 31.8334L103.267 31.8334L103.267 35.5001ZM103.667 37.5001C102.744 37.5001 101.878 37.3251 101.067 36.9751C100.256 36.6251 99.55 36.1501 98.95 35.5501C98.3501 34.9501 97.875 34.2445 97.5249 33.4334C97.175 32.6223 97 31.7556 97 30.8334C97 29.9112 97.175 29.0445 97.5249 28.2334C97.875 27.4223 98.3501 26.7167 98.95 26.1168C99.55 25.5168 100.256 25.0417 101.067 24.6917C101.878 24.3417 102.744 24.1667 103.667 24.1667C104.589 24.1667 105.456 24.3417 106.267 24.6917C107.078 25.0417 107.783 25.5168 108.383 26.1168C108.983 26.7167 109.458 27.4223 109.808 28.2334C110.158 29.0445 110.333 29.9112 110.333 30.8334C110.333 31.7556 110.158 32.6223 109.808 33.4334C109.458 34.2445 108.983 34.9501 108.383 35.5501C107.783 36.1501 107.078 36.6251 106.267 36.9751C105.456 37.3251 104.589 37.5001 103.667 37.5001Z" fill="#FFFFFF" fill-opacity="1.000000" fill-rule="nonzero"/>
		<path id="1" d="M125.859 20.4541L123.72 20.4541L120.093 22.8271L120.093 24.9268L123.569 22.6562L123.657 22.6562L123.657 35L125.859 35L125.859 20.4541Z" fill="#FFFFFF" fill-opacity="1.000000" fill-rule="evenodd"/>
		<rect id="Rectangle 4" x="1004.000000" rx="28.000000" width="170.000000" height="56.000000" fill="#360490" fill-opacity="1.000000"/>
		<path id="Score" d="M1046.88 24.2773L1048.99 24.2773C1048.93 21.9482 1046.87 20.2539 1043.91 20.2539C1041 20.2539 1038.76 21.9238 1038.76 24.4336C1038.76 26.4551 1040.21 27.6416 1042.55 28.2764L1044.27 28.7451C1045.82 29.1553 1047.02 29.668 1047.02 30.957C1047.02 32.3779 1045.66 33.3154 1043.8 33.3154C1042.11 33.3154 1040.7 32.5635 1040.57 30.9814L1038.37 30.9814C1038.51 33.6133 1040.55 35.2393 1043.81 35.2393C1047.23 35.2393 1049.19 33.4424 1049.19 30.9814C1049.19 28.3594 1046.86 27.3438 1045.01 26.8896L1043.59 26.5186C1042.45 26.2305 1040.94 25.6982 1040.95 24.3018C1040.95 23.0664 1042.08 22.1533 1043.87 22.1533C1045.54 22.1533 1046.72 22.9346 1046.88 24.2773ZM1056.24 35.2197C1058.82 35.2197 1060.49 33.6719 1060.72 31.5479L1058.65 31.5479C1058.39 32.7295 1057.47 33.4229 1056.25 33.4229C1054.45 33.4229 1053.3 31.9238 1053.3 29.5459C1053.3 27.207 1054.48 25.7373 1056.25 25.7373C1057.6 25.7373 1058.42 26.5918 1058.65 27.6123L1060.72 27.6123C1060.49 25.4102 1058.7 23.9502 1056.22 23.9502C1053.14 23.9502 1051.15 26.2646 1051.15 29.5947C1051.15 32.8857 1053.07 35.2197 1056.24 35.2197ZM1067.59 35.2197C1070.67 35.2197 1072.68 32.9688 1072.68 29.5947C1072.68 26.2012 1070.67 23.9502 1067.59 23.9502C1064.52 23.9502 1062.51 26.2012 1062.51 29.5947C1062.51 32.9688 1064.52 35.2197 1067.59 35.2197ZM1067.6 33.4375C1065.59 33.4375 1064.65 31.6846 1064.65 29.5898C1064.65 27.5 1065.59 25.7227 1067.6 25.7227C1069.6 25.7227 1070.54 27.5 1070.54 29.5898C1070.54 31.6846 1069.6 33.4375 1067.6 33.4375ZM1075.04 35L1077.17 35L1077.17 28.3398C1077.17 26.9092 1078.27 25.8789 1079.78 25.8789C1080.22 25.8789 1080.71 25.957 1080.88 26.0107L1080.88 23.9795C1080.67 23.9502 1080.25 23.9258 1079.98 23.9258C1078.7 23.9258 1077.61 24.6533 1077.21 25.8252L1077.1 25.8252L1077.1 24.0918L1075.04 24.0918L1075.04 35ZM1087.03 35.2197C1089.42 35.2197 1091.1 34.0479 1091.58 32.2705L1089.57 31.9092C1089.19 32.9395 1088.26 33.4668 1087.06 33.4668C1085.24 33.4668 1084.02 32.2852 1083.96 30.1855L1091.72 30.1855L1091.72 29.4336C1091.72 25.4883 1089.36 23.9502 1086.89 23.9502C1083.84 23.9502 1081.84 26.2646 1081.84 29.6143C1081.84 33.0029 1083.82 35.2197 1087.03 35.2197ZM1083.97 28.5938C1084.05 27.0459 1085.17 25.7031 1086.9 25.7031C1088.55 25.7031 1089.63 26.9238 1089.64 28.5938L1083.97 28.5938Z" fill="#FFFFFF" fill-opacity="1.000000" fill-rule="evenodd"/>
		<path id="monetization_on" d="M1110.63 34.9945L1112.48 34.9945L1112.48 33.6714C1113.37 33.5126 1114.13 33.1686 1114.76 32.6393C1115.4 32.1101 1115.71 31.325 1115.71 30.2842C1115.71 29.5432 1115.5 28.864 1115.08 28.2466C1114.65 27.6291 1113.81 27.091 1112.54 26.6324C1111.48 26.2795 1110.75 25.9708 1110.34 25.7062C1109.94 25.4415 1109.73 25.0799 1109.73 24.6212C1109.73 24.1625 1109.9 23.8009 1110.22 23.5362C1110.55 23.2716 1111.02 23.1393 1111.64 23.1393C1112.2 23.1393 1112.64 23.276 1112.96 23.5495C1113.28 23.8229 1113.51 24.1625 1113.65 24.5683L1115.34 23.8802C1115.15 23.2628 1114.79 22.7247 1114.27 22.2661C1113.75 21.8073 1113.17 21.5515 1112.54 21.4986L1112.54 20.1755L1110.69 20.1755L1110.69 21.4986C1109.8 21.6927 1109.12 22.0808 1108.62 22.663C1108.13 23.2451 1107.88 23.8979 1107.88 24.6212C1107.88 25.4503 1108.12 26.1207 1108.61 26.6324C1109.09 27.144 1109.86 27.585 1110.9 27.9555C1112.01 28.3612 1112.78 28.7229 1113.21 29.0404C1113.64 29.358 1113.86 29.7726 1113.86 30.2842C1113.86 30.8664 1113.65 31.2942 1113.24 31.5676C1112.82 31.8411 1112.33 31.9778 1111.74 31.9778C1111.16 31.9778 1110.65 31.7969 1110.2 31.4353C1109.75 31.0736 1109.42 30.5312 1109.2 29.8079L1107.46 30.4959C1107.7 31.3427 1108.09 32.0263 1108.61 32.5467C1109.13 33.0671 1109.8 33.4244 1110.63 33.6184L1110.63 34.9945ZM1111.58 38.17C1110.12 38.17 1108.74 37.8922 1107.46 37.3364C1106.17 36.7807 1105.05 36.0266 1104.1 35.0739C1103.14 34.1212 1102.39 33.001 1101.83 31.7132C1101.28 30.4253 1101 29.0493 1101 27.585C1101 26.1207 1101.28 24.7447 1101.83 23.4568C1102.39 22.169 1103.14 21.0488 1104.1 20.0961C1105.05 19.1435 1106.17 18.3893 1107.46 17.8336C1108.74 17.2779 1110.12 17 1111.58 17C1113.05 17 1114.43 17.2779 1115.71 17.8336C1117 18.3893 1118.12 19.1435 1119.07 20.0961C1120.03 21.0488 1120.78 22.169 1121.34 23.4568C1121.89 24.7447 1122.17 26.1207 1122.17 27.585C1122.17 29.0493 1121.89 30.4253 1121.34 31.7132C1120.78 33.001 1120.03 34.1212 1119.07 35.0739C1118.12 36.0266 1117 36.7807 1115.71 37.3364C1114.43 37.8922 1113.05 38.17 1111.58 38.17Z" fill="#FFFFFF" fill-opacity="1.000000" fill-rule="nonzero"/>
		<path id="1" d="M1137.36 20.4541L1135.22 20.4541L1131.6 22.8271L1131.6 24.9268L1135.07 22.6562L1135.16 22.6562L1135.16 35L1137.36 35L1137.36 20.4541Z" fill="#FFFFFF" fill-opacity="1.000000" fill-rule="evenodd"/>
	</g>
</svg>
